<svg id="Layer_1" data-name="Layer 1" xmlns="http://www.w3.org/2000/svg" viewBox="0 0 11 11"><defs><style>.cls-1{fill:#fff;}</style></defs><path class="cls-1" d="M6.91687,2.15475,6.0002,5.08333,5.08354,2.15475,6.0002.5Zm-4.80581-.044L2.633,3.929,5.352,5.35168l-1.42264-2.719ZM.5,5.9998l1.65475.91666L5.08333,5.9998,2.15475,5.08313ZM2.11077,9.88894,3.929,9.367,5.35168,6.648l-2.719,1.42264ZM5.9998,11.5l.91666-1.65475L5.9998,6.91667,5.08313,9.84525ZM9.88894,9.88923,9.367,8.071,6.648,6.64832l1.42264,2.719ZM11.5,6.0002,9.84525,5.08354,6.91667,6.0002l2.92858.91667ZM9.88923,2.11106,8.071,2.633,6.64832,5.352l2.719-1.42264Z" transform="translate(-0.5 -0.5)"/></svg>